<svg xmlns="http://www.w3.org/2000/svg" viewBox="0 0 50 50"><defs><style>.cls-1{fill:none;}</style></defs><title>copy</title><g id="图层_2" data-name="图层 2"><g id="图层_1-2" data-name="图层 1"><g id="copy"><rect class="cls-1" width="50" height="50"/><path class="cls-1" d="M33.63,30V22.08H19.53a2,2,0,0,0-2,2v7.87h14.1A2,2,0,0,0,33.63,30Z"/><path class="cls-1" d="M19.53,19.74h14.1V17.32a2,2,0,0,0-2-2H12.79a2,2,0,0,0-2,2V30a2,2,0,0,0,2,2h2.43V24.05A4.31,4.31,0,0,1,19.53,19.74Z"/><path class="cls-1" d="M31.66,34.26H17.56v2.42a2,2,0,0,0,2,2H38.4a2,2,0,0,0,2-2V24.05a2,2,0,0,0-2-2H36V30A4.32,4.32,0,0,1,31.66,34.26Z"/><path d="M12.79,31.92a2,2,0,0,1-2-2V17.32a2,2,0,0,1,2-2H31.66a2,2,0,0,1,2,2v2.42H36V17.32A4.33,4.33,0,0,0,31.66,13H12.79a4.32,4.32,0,0,0-4.31,4.32V30a4.31,4.31,0,0,0,4.31,4.31h2.43V31.92Z"/><path d="M38.4,19.74H36v2.34H38.4a2,2,0,0,1,2,2V36.68a2,2,0,0,1-2,2H19.53a2,2,0,0,1-2-2V34.26H15.22v2.42A4.32,4.32,0,0,0,19.53,41H38.4a4.32,4.32,0,0,0,4.31-4.32V24.05A4.31,4.31,0,0,0,38.4,19.74Z"/><path d="M19.53,22.08h14.1V19.74H19.53a4.31,4.31,0,0,0-4.31,4.31v7.87h2.34V24.05A2,2,0,0,1,19.53,22.08Z"/><rect x="33.63" y="19.74" width="2.34" height="2.34"/><rect x="15.22" y="31.92" width="2.34" height="2.34"/></g></g></g></svg>