<svg xmlns="http://www.w3.org/2000/svg" viewBox="0 0 50 50"><defs><style>.cls-1{fill:none;}</style></defs><title>delete</title><g id="图层_2" data-name="图层 2"><g id="图层_1-2" data-name="图层 1"><g id="delete"><rect class="cls-1" width="50" height="50"/><path id="delete-2" data-name="delete" d="M33.93,36.44l1-20.09H36.5a.87.87,0,0,0,0-1.73H30.43v-2.1a3,3,0,0,0-3.25-3.07H22.11a3,3,0,0,0-3.23,3.07v2.1h-6a.87.87,0,0,0,0,1.73h1.61l1,20.1a3,3,0,0,0,3.15,3H30.78A3,3,0,0,0,33.93,36.44ZM20.71,12.63a1.43,1.43,0,0,1,1.53-1.46h4.83a1.45,1.45,0,0,1,1.54,1.46v2h-7.9Zm-2,25.08a1.5,1.5,0,0,1-1.51-1.46l-1-19.9H33.05l-.92,19.9a1.49,1.49,0,0,1-1.51,1.46Zm10-2.54a.72.72,0,0,0,.7-.76l.41-14.63A.71.71,0,0,0,29.1,19a.74.74,0,0,0-.69.76L28,34.39A.72.72,0,0,0,28.66,35.17Zm-8,0a.71.71,0,0,0,.68-.78l-.42-14.63a.75.75,0,0,0-.7-.76.72.72,0,0,0-.68.78L20,34.41A.71.71,0,0,0,20.66,35.17Zm4.71-.77a.71.71,0,1,1-1.41,0V19.76a.71.71,0,1,1,1.41,0Z"/></g></g></g></svg>